<svg width="12" height="13" viewBox="0 0 12 13" fill="none" xmlns="http://www.w3.org/2000/svg">
<path d="M7.072 7.896C7.072 8.084 7.026 8.264 6.934 8.436C6.842 8.604 6.704 8.744 6.52 8.856C6.336 8.968 6.112 9.03 5.848 9.042V9.522H5.584V9.036C5.228 9.004 4.94 8.888 4.72 8.688C4.5 8.484 4.382 8.232 4.366 7.932H4.816C4.832 8.112 4.904 8.276 5.032 8.424C5.164 8.568 5.348 8.656 5.584 8.688V7.026C5.316 6.954 5.1 6.882 4.936 6.81C4.776 6.738 4.64 6.628 4.528 6.48C4.416 6.328 4.36 6.126 4.36 5.874C4.36 5.558 4.47 5.298 4.69 5.094C4.91 4.886 5.208 4.774 5.584 4.758V4.254H5.848V4.764C6.18 4.796 6.446 4.904 6.646 5.088C6.846 5.272 6.964 5.502 7 5.778H6.556C6.532 5.63 6.458 5.492 6.334 5.364C6.214 5.236 6.052 5.156 5.848 5.124V6.726C6.108 6.794 6.32 6.866 6.484 6.942C6.652 7.014 6.792 7.126 6.904 7.278C7.016 7.43 7.072 7.636 7.072 7.896ZM4.786 5.856C4.786 6.08 4.854 6.25 4.99 6.366C5.13 6.478 5.328 6.572 5.584 6.648V5.106C5.344 5.118 5.15 5.188 5.002 5.316C4.858 5.444 4.786 5.624 4.786 5.856ZM5.848 8.7C6.104 8.684 6.302 8.604 6.442 8.46C6.582 8.312 6.652 8.13 6.652 7.914C6.652 7.686 6.582 7.514 6.442 7.398C6.306 7.282 6.108 7.184 5.848 7.104V8.7Z" fill="black"/>
<path d="M7.51004 4.08128C7.51004 4.18917 7.5529 4.29265 7.62919 4.36894C7.70549 4.44524 7.80896 4.4881 7.91686 4.4881H12V0.408687C12 0.300297 11.9569 0.196346 11.8803 0.119702C11.8037 0.043058 11.6997 0 11.5913 0C11.4829 0 11.379 0.043058 11.3023 0.119702C11.2257 0.196346 11.1826 0.300297 11.1826 0.408687V3.07355C10.4173 1.95283 9.30143 1.11802 8.01023 0.700234C6.71903 0.282444 5.32563 0.305331 4.04885 0.7653C2.77207 1.22527 1.68421 2.09627 0.956111 3.24153C0.228009 4.38678 -0.0991014 5.74143 0.0261468 7.09275C0.151395 8.44407 0.721908 9.71552 1.6481 10.7074C2.57429 11.6994 3.80369 12.3556 5.14327 12.5731C6.48284 12.7905 7.8567 12.5569 9.04912 11.9089C10.2415 11.261 11.185 10.2353 11.7313 8.99299C11.7717 8.89225 11.7714 8.77972 11.7304 8.67922C11.6893 8.57872 11.6108 8.49812 11.5114 8.45448C11.412 8.41084 11.2995 8.40759 11.1978 8.4454C11.096 8.48321 11.0129 8.55912 10.9662 8.65708C10.492 9.73686 9.67087 10.6274 8.63297 11.1873C7.59507 11.7471 6.3999 11.9443 5.23715 11.7476C4.0744 11.5508 3.01069 10.9713 2.21483 10.101C1.41896 9.2308 0.936551 8.11968 0.844152 6.94402C0.751754 5.76836 1.05466 4.59552 1.70481 3.61164C2.35495 2.62775 3.31507 1.88919 4.43281 1.51318C5.55054 1.13716 6.76184 1.14523 7.87446 1.53611C8.98708 1.92698 9.93728 2.67826 10.5743 3.67072H7.92059C7.86654 3.67022 7.81293 3.6805 7.76289 3.70096C7.71285 3.72142 7.6674 3.75164 7.62917 3.78986C7.59095 3.82808 7.56073 3.87354 7.54027 3.92358C7.51982 3.97361 7.50954 4.02722 7.51004 4.08128Z" fill="black"/>
</svg>
